<?xml version="1.0" standalone="no"?>
<!DOCTYPE svg PUBLIC "-//W3C//DTD SVG 20010904//EN"
 "http://www.w3.org/TR/2001/REC-SVG-20010904/DTD/svg10.dtd">
<svg version="1.0" xmlns="http://www.w3.org/2000/svg"
 width="960.000000pt" height="960.000000pt" viewBox="0 0 960.000000 960.000000"
 preserveAspectRatio="xMidYMid meet">
<metadata>
Created by potrace 1.11, written by Peter Selinger 2001-2013
</metadata>
<g transform="translate(0.000000,960.000000) scale(0.100000,-0.100000)"
fill="#000000" stroke="none">
<path d="M0 4800 l0 -4800 4800 0 4800 0 0 4800 0 4800 -4800 0 -4800 0 0
-4800z m9250 -5 l0 -4445 -4445 0 -4445 0 0 4438 c0 2441 3 4442 7 4445 3 4
2004 7 4445 7 l4438 0 0 -4445z"/>
<path d="M492 4793 l3 -4308 4310 0 4310 0 3 4308 2 4307 -4315 0 -4315 0 2
-4307z m8488 2 l0 -4175 -4175 0 -4175 0 0 4175 0 4175 4175 0 4175 0 0 -4175z"/>
<path d="M2880 5545 l0 -2105 950 0 950 0 0 420 0 420 -402 2 -403 3 -3 463
-2 462 345 0 345 0 0 400 0 400 -345 0 -345 0 0 400 0 400 368 0 368 0 0 420
1 420 -914 0 -913 0 0 -2105z"/>
<path d="M4817 6023 c-4 -3 -7 -195 -7 -425 l0 -418 325 0 325 0 0 -1685 0
-1685 548 2 547 3 0 1682 0 1683 325 2 325 3 0 420 0 420 -1191 3 c-655 1
-1194 -1 -1197 -5z"/>
</g>
</svg>
